HIERARCHY
ROOT hips
{
	OFFSET -0.003675 0.299928 -0.021708
	CHANNELS 6 Xposition Yposition Zposition Xrotation Yrotation Zrotation
	JOINT LowerBack
	{
		OFFSET 0.000919 0.177588 0.009275
		CHANNELS 3 Xrotation Yrotation Zrotation
		JOINT spine
		{
			OFFSET 0.000919 0.177588 0.009275
			CHANNELS 3 Xrotation Yrotation Zrotation
			JOINT chest
			{
				OFFSET 0.000456 0.100015 0.004638
				CHANNELS 3 Xrotation Yrotation Zrotation
				JOINT neck
				{
					OFFSET 0.000456 0.100015 0.004638
					CHANNELS 3 Xrotation Yrotation Zrotation
					JOINT head
					{
						OFFSET 0.000924 0.155147 0.009274
						CHANNELS 6 Xposition Yposition Zposition Xrotation Yrotation Zrotation
						End Site
						{
							OFFSET 0.000000 0.153400 0.000000
						}
					}
				}
				JOINT shoulder.L
				{
					OFFSET 0.019937 0.078966 0.057518
					CHANNELS 6 Xposition Yposition Zposition Yrotation Xrotation Zrotation
					JOINT upper_arm.L
					{
						OFFSET 0.177024 -0.020465 -0.095062
						CHANNELS 6 Xposition Yposition Zposition Xrotation Yrotation Zrotation
						JOINT forearm.L
						{
							OFFSET 0.247100 -0.135500 -0.061800
							CHANNELS 3 Xrotation Yrotation Zrotation
							JOINT hand.L
							{
								OFFSET 0.217000 -0.143000 0.039300
								CHANNELS 3 Xrotation Yrotation Zrotation
								JOINT palm.01.L
								{
									OFFSET 0.021770 -0.038291 0.012954
									CHANNELS 6 Xposition Yposition Zposition Yrotation Xrotation Zrotation
									JOINT f_index.01.L
									{
										OFFSET 0.053215 -0.044137 0.008236
										CHANNELS 3 Xrotation Yrotation Zrotation
										JOINT f_index.02.L
										{
											OFFSET 0.036108 -0.024723 -0.010656
											CHANNELS 3 Xrotation Yrotation Zrotation
											JOINT f_index.03.L
											{
												OFFSET 0.021342 -0.014948 -0.010846
												CHANNELS 3 Xrotation Yrotation Zrotation
												End Site
												{
													OFFSET 0.015600 -0.009860 -0.013421
												}
											}
										}
									}
									JOINT thumb.01.L
									{
										OFFSET -0.009090 -0.002348 -0.024223
										CHANNELS 6 Xposition Yposition Zposition Xrotation Yrotation Zrotation
										JOINT thumb.02.L
										{
											OFFSET 0.019713 -0.035076 -0.011120
											CHANNELS 3 Xrotation Yrotation Zrotation
											JOINT thumb.03.L
											{
												OFFSET 0.024877 -0.021748 -0.005176
												CHANNELS 3 Xrotation Yrotation Zrotation
												End Site
												{
													OFFSET 0.016125 -0.013029 -0.001569
												}
											}
										}
									}
								}
								JOINT palm.02.L
								{
									OFFSET 0.032823 -0.025104 0.012281
									CHANNELS 6 Xposition Yposition Zposition Yrotation Xrotation Zrotation
									JOINT f_middle.01.L
									{
										OFFSET 0.055723 -0.038469 0.008037
										CHANNELS 3 Xrotation Yrotation Zrotation
										JOINT f_middle.02.L
										{
											OFFSET 0.038167 -0.027473 -0.015582
											CHANNELS 3 Xrotation Yrotation Zrotation
											JOINT f_middle.03.L
											{
												OFFSET 0.021707 -0.016587 -0.017037
												CHANNELS 3 Xrotation Yrotation Zrotation
												End Site
												{
													OFFSET 0.014112 -0.010584 -0.014294
												}
											}
										}
									}
								}
								JOINT palm.03.L
								{
									OFFSET 0.039230 -0.011402 0.008390
									CHANNELS 6 Xposition Yposition Zposition Yrotation Xrotation Zrotation
									JOINT f_ring.01.L
									{
										OFFSET 0.061796 -0.031470 0.007910
										CHANNELS 3 Xrotation Yrotation Zrotation
										JOINT f_ring.02.L
										{
											OFFSET 0.033092 -0.023401 -0.019127
											CHANNELS 3 Xrotation Yrotation Zrotation
											JOINT f_ring.03.L
											{
												OFFSET 0.021392 -0.015362 -0.017824
												CHANNELS 3 Xrotation Yrotation Zrotation
												End Site
												{
													OFFSET 0.008670 -0.007297 -0.014686
												}
											}
										}
									}
								}
								JOINT palm.04.L
								{
									OFFSET 0.043417 0.002450 0.002889
									CHANNELS 6 Xposition Yposition Zposition Yrotation Xrotation Zrotation
									JOINT f_pinky.01.L
									{
										OFFSET 0.069986 -0.026156 0.003627
										CHANNELS 3 Xrotation Yrotation Zrotation
										JOINT f_pinky.02.L
										{
											OFFSET 0.018520 -0.012813 -0.016429
											CHANNELS 3 Xrotation Yrotation Zrotation
											JOINT f_pinky.03.L
											{
												OFFSET 0.013822 -0.009796 -0.014947
												CHANNELS 3 Xrotation Yrotation Zrotation
												End Site
												{
													OFFSET 0.007238 -0.006103 -0.011657
												}
											}
										}
									}
								}
							}
						}
					}
				}
				JOINT shoulder.R
				{
					OFFSET -0.016662 0.078957 0.057696
					CHANNELS 6 Xposition Yposition Zposition Yrotation Xrotation Zrotation
					JOINT upper_arm.R
					{
						OFFSET -0.176972 -0.020537 -0.095144
						CHANNELS 6 Xposition Yposition Zposition Xrotation Yrotation Zrotation
						JOINT forearm.R
						{
							OFFSET -0.247100 -0.135500 -0.061800
							CHANNELS 3 Xrotation Yrotation Zrotation
							JOINT hand.R
							{
								OFFSET -0.217000 -0.143000 0.039300
								CHANNELS 3 Xrotation Yrotation Zrotation
								JOINT palm.01.R
								{
									OFFSET -0.021773 -0.038278 0.012988
									CHANNELS 6 Xposition Yposition Zposition Yrotation Xrotation Zrotation
									JOINT f_index.01.R
									{
										OFFSET -0.053212 -0.044139 0.008249
										CHANNELS 3 Xrotation Yrotation Zrotation
										JOINT f_index.02.R
										{
											OFFSET -0.036049 -0.024835 -0.010634
											CHANNELS 3 Xrotation Yrotation Zrotation
											JOINT f_index.03.R
											{
												OFFSET -0.021371 -0.014881 -0.010866
												CHANNELS 3 Xrotation Yrotation Zrotation
												End Site
												{
													OFFSET -0.015584 -0.009883 -0.013422
												}
											}
										}
									}
									JOINT thumb.01.R
									{
										OFFSET 0.009113 -0.002381 -0.024211
										CHANNELS 6 Xposition Yposition Zposition Xrotation Yrotation Zrotation
										JOINT thumb.02.R
										{
											OFFSET -0.019694 -0.035097 -0.011088
											CHANNELS 3 Xrotation Yrotation Zrotation
											JOINT thumb.03.R
											{
												OFFSET -0.024867 -0.021762 -0.005168
												CHANNELS 3 Xrotation Yrotation Zrotation
												End Site
												{
													OFFSET -0.016120 -0.013036 -0.001565
												}
											}
										}
									}
								}
								JOINT palm.02.R
								{
									OFFSET -0.032828 -0.025095 0.012286
									CHANNELS 6 Xposition Yposition Zposition Yrotation Xrotation Zrotation
									JOINT f_middle.01.R
									{
										OFFSET -0.055721 -0.038472 0.008040
										CHANNELS 3 Xrotation Yrotation Zrotation
										JOINT f_middle.02.R
										{
											OFFSET -0.038101 -0.027593 -0.015557
											CHANNELS 3 Xrotation Yrotation Zrotation
											JOINT f_middle.03.R
											{
												OFFSET -0.021730 -0.016530 -0.017054
												CHANNELS 3 Xrotation Yrotation Zrotation
												End Site
												{
													OFFSET -0.014096 -0.010608 -0.014293
												}
											}
										}
									}
								}
								JOINT palm.03.R
								{
									OFFSET -0.039192 -0.011488 0.008390
									CHANNELS 6 Xposition Yposition Zposition Yrotation Xrotation Zrotation
									JOINT f_ring.01.R
									{
										OFFSET -0.061839 -0.031387 0.007876
										CHANNELS 3 Xrotation Yrotation Zrotation
										JOINT f_ring.02.R
										{
											OFFSET -0.033068 -0.023437 -0.019125
											CHANNELS 3 Xrotation Yrotation Zrotation
											JOINT f_ring.03.R
											{
												OFFSET -0.021371 -0.015393 -0.017822
												CHANNELS 3 Xrotation Yrotation Zrotation
												End Site
												{
													OFFSET -0.008654 -0.007321 -0.014684
												}
											}
										}
									}
								}
								JOINT palm.04.R
								{
									OFFSET -0.043421 0.002443 0.002845
									CHANNELS 6 Xposition Yposition Zposition Yrotation Xrotation Zrotation
									JOINT f_pinky.01.R
									{
										OFFSET -0.069983 -0.026169 0.003599
										CHANNELS 3 Xrotation Yrotation Zrotation
										JOINT f_pinky.02.R
										{
											OFFSET -0.018501 -0.012842 -0.016428
											CHANNELS 3 Xrotation Yrotation Zrotation
											JOINT f_pinky.03.R
											{
												OFFSET -0.013806 -0.009821 -0.014946
												CHANNELS 3 Xrotation Yrotation Zrotation
												End Site
												{
													OFFSET -0.007226 -0.006121 -0.011655
												}
											}
										}
									}
								}
							}
						}
					}
				}
			}
		}
	}
	JOINT pelvis.L
	{
		OFFSET 0.000000 0.000000 0.000000
		CHANNELS 6 Xposition Yposition Zposition Xrotation Yrotation Zrotation
		JOINT thigh.L
		{
			OFFSET 0.101675 0.001054 -0.000000
			CHANNELS 3 Xrotation Yrotation Zrotation
			JOINT shin.L
			{
				OFFSET 0.000000 -0.534800 0.041000
				CHANNELS 3 Xrotation Yrotation Zrotation
				JOINT foot.L
				{
					OFFSET 0.000000 -0.452000 -0.044800
					CHANNELS 3 Xrotation Yrotation Zrotation
					JOINT toe.L
					{
						OFFSET -0.000000 -0.068500 0.109600
						CHANNELS 3 Xrotation Yrotation Zrotation
						End Site
						{
							OFFSET -0.000000 0.000000 0.067200
						}
					}
				}
				JOINT heel.L
				{
					OFFSET 0.000000 -0.452000 -0.044800
					CHANNELS 3 Xrotation Yrotation Zrotation
					JOINT heel.02.L
					{
						OFFSET -0.038000 -0.085200 0.016200
						CHANNELS 6 Xposition Yposition Zposition Xrotation Yrotation Zrotation
						End Site
						{
							OFFSET 0.080000 -0.000000 0.000000
						}
					}
				}
			}
		}
	}
	JOINT pelvis.R
	{
		OFFSET 0.000000 0.000000 0.000000
		CHANNELS 6 Xposition Yposition Zposition Xrotation Yrotation Zrotation
		JOINT thigh.R
		{
			OFFSET -0.094325 0.001054 0.000000
			CHANNELS 3 Xrotation Yrotation Zrotation
			JOINT shin.R
			{
				OFFSET 0.000000 -0.534800 0.041000
				CHANNELS 3 Xrotation Yrotation Zrotation
				JOINT foot.R
				{
					OFFSET 0.000000 -0.452000 -0.044800
					CHANNELS 3 Xrotation Yrotation Zrotation
					JOINT toe.R
					{
						OFFSET -0.000000 -0.068500 0.109600
						CHANNELS 3 Xrotation Yrotation Zrotation
						End Site
						{
							OFFSET -0.000000 0.000000 0.067200
						}
					}
				}
				JOINT heel.R
				{
					OFFSET 0.000000 -0.452000 -0.044800
					CHANNELS 3 Xrotation Yrotation Zrotation
					JOINT heel.02.R
					{
						OFFSET 0.038000 -0.085200 0.016200
						CHANNELS 6 Xposition Yposition Zposition Xrotation Yrotation Zrotation
						End Site
						{
							OFFSET -0.080000 0.000000 -0.000000
						}
					}
				}
			}
		}
	}
}
MOTION
Frames: 4
Frame Time: 0.041667
0.002085 0.204878 -0.000497 67.090455 16.310405 82.757447 0.000001 -0.000002 -0.000000 -0.000003 -0.000003 0.000001 -0.000001 -0.000003 -0.000000 -0.000001 -0.000000 0.000001 0.000924 0.155147 0.009274 -15.548584 0.055044 -5.684807 0.019937 0.078966 0.057518 -3.910082 6.440789 48.608926 0.177024 -0.020465 -0.095062 -54.278120 20.071834 -61.122209 -72.106826 7.330303 -60.872763 -0.000005 0.000000 -0.000004 0.021770 -0.038291 0.012954 -0.000001 0.000001 0.000001 -0.000001 -0.000003 -0.000000 -0.000002 -0.000000 0.000012 -0.000001 0.000001 0.000002 -0.009090 -0.002348 -0.024223 0.000002 -0.000003 -0.000001 -0.000001 -0.000000 0.000001 0.000003 -0.000001 0.000003 0.032823 -0.025104 0.012281 -0.000000 0.000000 0.000002 -0.000001 -0.000002 -0.000002 0.000000 -0.000002 0.000005 -0.000002 -0.000002 0.000002 0.039230 -0.011402 0.008390 -0.000001 0.000000 0.000003 -0.000004 0.000001 -0.000000 0.000001 0.000005 0.000001 -0.000002 -0.000003 0.000001 0.043417 0.002450 0.002889 -0.000001 -0.000002 -0.000003 -0.000001 -0.000004 0.000001 -0.000005 0.000004 0.000000 -0.000002 -0.000001 -0.000001 -0.016662 0.078956 0.057696 -3.608587 3.708933 -32.703728 -0.176972 -0.020537 -0.095144 -29.085077 -14.115417 57.340435 -20.854396 -56.728635 140.673483 0.000001 -0.000002 -0.000001 -0.021773 -0.038278 0.012988 0.000000 -0.000001 0.000002 0.000000 0.000004 -0.000003 -0.000001 -0.000004 0.000000 0.000000 0.000000 0.000003 0.009114 -0.002381 -0.024212 -0.000000 0.000002 -0.000002 0.000002 -0.000004 0.000000 0.000002 0.000003 -0.000003 -0.032828 -0.025095 0.012286 0.000003 -0.000000 -0.000001 0.000001 -0.000001 -0.000001 0.000002 -0.000003 -0.000001 -0.000001 0.000004 -0.000007 -0.039192 -0.011488 0.008390 0.000001 -0.000000 0.000005 0.000000 0.000004 -0.000002 0.000001 -0.000001 -0.000004 -0.000005 0.000000 0.000003 -0.043421 0.002443 0.002845 0.000002 0.000000 0.000000 -0.000003 0.000003 -0.000001 -0.000000 0.000000 0.000000 -0.000002 0.000009 -0.000000 0.000000 0.000000 -0.000000 -1.811434 2.085264 -24.352563 31.704014 -2.004343 -28.987237 -13.345831 0.573374 -5.792868 -0.000002 0.000002 -0.000001 -0.000000 0.000001 -0.000001 0.000000 0.000003 0.000001 -0.038000 -0.085200 0.016200 -0.000002 -0.000001 -0.000000 0.000000 0.000000 -0.000000 -1.698918 2.035760 -23.122431 11.344452 -0.300859 -3.442079 16.145599 2.883092 -30.538155 -0.000003 -0.000000 -0.000001 0.000003 -0.000001 -0.000001 0.000002 -0.000001 -0.000003 0.038000 -0.085200 0.016200 -0.000002 -0.000001 0.000001 
0.001674 0.205753 0.000492 62.806438 17.871443 84.801901 -0.000001 -0.000000 -0.000001 -0.000001 -0.000001 -0.000000 -0.000001 -0.000001 -0.000001 -0.000001 -0.000000 -0.000000 0.000924 0.155148 0.009274 -18.237939 0.066289 -5.143818 0.019937 0.078966 0.057518 -2.291649 5.365906 43.161611 0.177024 -0.020465 -0.095062 -55.018782 31.975889 -72.776048 -26.864642 -28.797307 -8.882764 -0.000002 -0.000000 0.000001 0.021770 -0.038291 0.012954 -0.000001 -0.000000 -0.000002 -0.000003 -0.000001 -0.000002 0.000001 -0.000000 0.000003 0.000002 0.000001 -0.000000 -0.009090 -0.002348 -0.024224 0.000002 0.000001 -0.000002 0.000004 0.000002 -0.000000 0.000001 0.000002 -0.000002 0.032823 -0.025104 0.012281 -0.000003 0.000000 0.000007 0.000000 0.000000 -0.000005 -0.000002 0.000001 0.000003 -0.000000 0.000002 -0.000004 0.039230 -0.011402 0.008390 -0.000000 0.000000 0.000008 0.000002 0.000003 -0.000002 -0.000002 0.000004 0.000001 0.000001 -0.000001 0.000002 0.043417 0.002450 0.002889 -0.000001 -0.000000 0.000002 0.000001 -0.000005 -0.000000 -0.000002 -0.000002 0.000000 0.000002 0.000004 -0.000003 -0.016662 0.078957 0.057696 1.215679 2.775572 -32.045410 -0.176972 -0.020537 -0.095144 -15.401496 -13.873835 57.155368 -34.993678 -52.242266 122.617632 -0.000000 0.000001 -0.000002 -0.021773 -0.038278 0.012988 -0.000000 -0.000002 -0.000005 0.000004 -0.000001 0.000000 0.000000 -0.000000 -0.000006 -0.000002 -0.000002 0.000003 0.009113 -0.002381 -0.024212 0.000003 -0.000003 -0.000005 -0.000001 -0.000002 -0.000001 -0.000001 0.000000 -0.000006 -0.032828 -0.025095 0.012286 0.000001 -0.000002 -0.000001 -0.000000 0.000003 0.000002 -0.000000 -0.000003 -0.000001 -0.000000 0.000000 -0.000003 -0.039192 -0.011488 0.008390 -0.000002 -0.000000 -0.000000 0.000002 0.000001 -0.000003 0.000001 0.000002 -0.000000 -0.000003 -0.000004 0.000002 -0.043421 0.002443 0.002845 0.000000 -0.000002 0.000000 -0.000002 0.000004 -0.000001 -0.000002 -0.000003 0.000000 -0.000001 0.000000 0.000002 0.000000 0.000000 -0.000000 -1.835907 2.036420 -23.758005 32.420278 -2.029000 -29.393019 -11.911504 0.634085 -6.408907 -0.000002 -0.000005 -0.000002 -0.000001 0.000000 -0.000000 0.000000 0.000000 0.000001 -0.038000 -0.085200 0.016200 -0.000002 -0.000003 -0.000002 0.000000 0.000000 -0.000000 -1.724362 1.988726 -22.527748 11.430432 -0.381988 -4.498356 22.410397 2.771423 -29.235392 0.000000 0.000003 0.000000 0.000000 -0.000001 0.000000 0.000003 0.000003 0.000002 0.038000 -0.085200 0.016200 -0.000001 0.000001 -0.000001 
-0.000644 0.207765 -0.000252 70.962517 18.320483 83.108376 0.000002 0.000002 -0.000001 -0.000001 0.000002 -0.000000 -0.000001 0.000002 -0.000002 -0.000000 0.000001 -0.000001 0.000924 0.155148 0.009274 -16.447300 0.059570 -4.136935 0.019937 0.078966 0.057518 3.945075 5.957452 43.427821 0.177025 -0.020465 -0.095062 -48.753528 20.839486 -65.291814 -15.305204 -17.534269 -7.305793 -0.000001 0.000000 0.000001 0.021770 -0.038291 0.012954 0.000001 0.000003 -0.000002 -0.000004 0.000000 -0.000000 -0.000000 0.000001 0.000007 0.000003 0.000005 0.000000 -0.009090 -0.002348 -0.024224 0.000002 0.000000 0.000001 0.000002 0.000001 0.000005 0.000002 -0.000003 0.000003 0.032823 -0.025104 0.012281 0.000000 0.000001 0.000007 0.000001 0.000001 -0.000000 -0.000000 0.000000 0.000001 0.000001 0.000005 -0.000001 0.039230 -0.011402 0.008390 0.000000 0.000001 0.000004 0.000001 0.000002 -0.000000 0.000001 0.000006 -0.000004 -0.000003 -0.000002 0.000003 0.043417 0.002450 0.002889 -0.000002 0.000004 -0.000005 0.000001 -0.000008 0.000002 -0.000000 0.000000 0.000003 -0.000000 -0.000001 -0.000001 -0.016662 0.078957 0.057696 4.678902 2.789254 -33.343293 -0.176972 -0.020537 -0.095144 -15.844401 -14.369441 58.184619 -51.375252 -30.270951 91.793508 0.000004 -0.000001 0.000001 -0.021773 -0.038278 0.012988 -0.000002 0.000002 -0.000007 -0.000001 0.000002 -0.000005 -0.000004 0.000001 -0.000004 0.000003 -0.000001 0.000004 0.009113 -0.002381 -0.024212 0.000002 0.000001 0.000003 0.000001 0.000000 -0.000001 -0.000002 -0.000005 -0.000003 -0.032828 -0.025095 0.012286 0.000001 0.000001 -0.000003 0.000003 -0.000003 0.000000 0.000001 -0.000004 -0.000001 -0.000003 -0.000003 -0.000004 -0.039192 -0.011488 0.008390 0.000001 0.000002 -0.000004 0.000001 -0.000005 0.000004 0.000002 -0.000004 0.000003 -0.000001 -0.000001 0.000001 -0.043421 0.002443 0.002845 -0.000002 0.000004 -0.000003 -0.000004 0.000003 0.000001 0.000001 0.000000 0.000000 -0.000002 0.000000 0.000002 0.000000 0.000000 -0.000000 -1.832212 2.332845 -26.674243 23.109134 -2.211013 -31.580305 -10.618190 0.541219 -5.466800 -0.000003 0.000000 0.000001 0.000000 -0.000001 0.000002 -0.000002 0.000001 0.000002 -0.038000 -0.085200 0.016200 -0.000001 0.000005 0.000002 -0.000000 0.000000 -0.000000 -1.709413 2.272781 -25.444995 3.056590 -0.424188 -5.675385 20.318553 2.569456 -26.920607 0.000002 0.000004 0.000002 -0.000000 0.000009 0.000001 0.000009 -0.000001 -0.000002 0.038000 -0.085200 0.016200 -0.000003 0.000004 0.000002 
-0.000613 0.206238 -0.002249 78.413406 17.883273 81.536708 -0.000001 -0.000000 -0.000001 -0.000001 0.000001 -0.000001 -0.000002 -0.000000 -0.000001 0.000001 0.000002 -0.000000 0.000924 0.155147 0.009274 -17.302360 0.061698 -6.284031 0.019937 0.078966 0.057518 9.543053 6.849388 44.027656 0.177025 -0.020465 -0.095062 -42.297237 16.595857 -63.223837 -26.553076 -24.772164 -13.974301 -0.000001 -0.000002 -0.000004 0.021770 -0.038291 0.012954 -0.000000 0.000001 0.000003 -0.000001 -0.000002 0.000003 0.000005 0.000000 -0.000000 0.000002 -0.000000 0.000002 -0.009090 -0.002348 -0.024224 -0.000003 -0.000001 0.000002 -0.000001 -0.000001 0.000001 0.000000 0.000000 -0.000002 0.032823 -0.025104 0.012281 -0.000003 -0.000001 0.000007 0.000002 0.000003 -0.000003 -0.000008 -0.000003 0.000007 -0.000002 0.000000 -0.000001 0.039230 -0.011402 0.008390 -0.000001 -0.000000 0.000006 -0.000002 0.000002 -0.000000 -0.000000 0.000003 0.000006 0.000001 -0.000006 0.000001 0.043417 0.002450 0.002889 -0.000001 -0.000000 0.000002 0.000001 -0.000002 -0.000004 -0.000002 -0.000000 -0.000004 0.000000 -0.000001 0.000000 -0.016662 0.078957 0.057696 9.802339 3.539001 -36.767759 -0.176972 -0.020537 -0.095144 -17.478159 -15.915709 63.845268 -46.945348 -10.919826 77.953878 -0.000000 0.000002 -0.000002 -0.021773 -0.038278 0.012988 0.000001 0.000001 -0.000007 -0.000005 0.000004 -0.000001 -0.000000 0.000003 -0.000001 -0.000000 -0.000005 -0.000002 0.009114 -0.002381 -0.024212 -0.000002 0.000002 -0.000004 0.000001 -0.000005 -0.000002 0.000000 -0.000001 0.000001 -0.032828 -0.025095 0.012286 0.000005 0.000001 -0.000004 -0.000002 0.000003 0.000002 -0.000003 0.000000 -0.000002 -0.000002 0.000002 0.000002 -0.039192 -0.011488 0.008390 0.000002 0.000004 -0.000000 -0.000002 0.000001 0.000000 0.000002 -0.000002 -0.000000 -0.000006 -0.000002 -0.000002 -0.043421 0.002443 0.002845 0.000004 0.000002 -0.000001 -0.000004 0.000007 -0.000003 -0.000003 -0.000001 -0.000000 0.000001 0.000001 -0.000001 0.000000 0.000000 0.000000 -1.812218 2.395657 -27.367453 16.626612 -2.375461 -33.671730 -13.146136 0.753518 -7.623190 -0.000002 -0.000000 0.000001 0.000003 0.000003 0.000001 0.000000 0.000002 0.000002 -0.038000 -0.085200 0.016200 0.000001 -0.000002 0.000001 -0.000000 0.000000 0.000000 -1.687750 2.332905 -26.138407 -2.309517 -0.158564 -2.605362 18.405785 3.185036 -34.154839 -0.000002 -0.000000 0.000001 0.000003 0.000000 0.000000 0.000005 -0.000000 -0.000001 0.038000 -0.085200 0.016200 -0.000005 -0.000001 -0.000001 
